<?xml version="1.0" encoding="UTF-8" standalone="no"?>
<!DOCTYPE svg PUBLIC "-//W3C//DTD SVG 1.1//EN"
 "http://www.w3.org/Graphics/SVG/1.1/DTD/svg11.dtd">
<!-- Generated by graphviz version 2.40.1 (20161225.0304)
 -->
<!-- Title: %0 Pages: 1 -->
<svg width="134pt" height="116pt"
 viewBox="0.00 0.00 134.00 116.00" xmlns="http://www.w3.org/2000/svg" xmlns:xlink="http://www.w3.org/1999/xlink">
<g id="graph0" class="graph" transform="scale(1 1) rotate(0) translate(4 112)">
<title>%0</title>
<polygon fill="#ffffff" stroke="transparent" points="-4,4 -4,-112 130,-112 130,4 -4,4"/>
<!-- a -->
<g id="node1" class="node">
<title>a</title>
<polygon fill="#f44336" stroke="#000000" points="63,-108 36,-90 63,-72 90,-90 63,-108"/>
<text text-anchor="middle" x="63" y="-85.8" font-family="Times,serif" font-size="14.00" fill="#000000">a</text>
</g>
<!-- b -->
<g id="node2" class="node">
<title>b</title>
<ellipse fill="none" stroke="#000000" cx="27" cy="-18" rx="27" ry="18"/>
<text text-anchor="middle" x="27" y="-13.8" font-family="Times,serif" font-size="14.00" fill="#000000">b</text>
</g>
<!-- a&#45;&gt;b -->
<g id="edge1" class="edge">
<title>a&#45;&gt;b</title>
<path fill="none" stroke="#000000" d="M56.2287,-76.4574C51.7233,-67.4465 45.6551,-55.3103 40.2156,-44.4311"/>
<polygon fill="#000000" stroke="#000000" points="43.2549,-42.6835 35.6522,-35.3045 36.9939,-45.814 43.2549,-42.6835"/>
</g>
<!-- d -->
<g id="node3" class="node">
<title>d</title>
<ellipse fill="none" stroke="#000000" cx="99" cy="-18" rx="27" ry="18"/>
<text text-anchor="middle" x="99" y="-13.8" font-family="Times,serif" font-size="14.00" fill="#000000">d</text>
</g>
<!-- a&#45;&gt;d -->
<g id="edge2" class="edge">
<title>a&#45;&gt;d</title>
<path fill="none" stroke="#f44336" stroke-width="3" d="M69.7713,-76.4574C74.2767,-67.4465 80.3449,-55.3103 85.7844,-44.4311"/>
<polygon fill="#f44336" stroke="#f44336" stroke-width="3" points="89.0061,-45.814 90.3478,-35.3045 82.7451,-42.6835 89.0061,-45.814"/>
</g>
</g>
</svg>
